<?xml version="1.0" encoding="UTF-8" standalone="no"?> <svg xmlns:dc="http://purl.org/dc/elements/1.1/" xmlns:cc="http://creativecommons.org/ns#" xmlns:rdf="http://www.w3.org/1999/02/22-rdf-syntax-ns#" xmlns:svg="http://www.w3.org/2000/svg" xmlns="http://www.w3.org/2000/svg" xmlns:sodipodi="http://sodipodi.sourceforge.net/DTD/sodipodi-0.dtd" xmlns:inkscape="http://www.inkscape.org/namespaces/inkscape" version="1.1" id="svg2" xml:space="preserve" width="900" height="264" viewBox="0 0 900 264" sodipodi:docname="Cenergistic Logo_Green.ai"><metadata id="metadata8"></metadata><defs id="defs6"><clipPath id="clipPath18"><path d="M 0,198 H 675 V 0 H 0 Z" id="path16"></path></clipPath></defs><g id="g10" inkscape:groupmode="layer" inkscape:label="Cenergistic Logo_Green" transform="matrix(1.3333333,0,0,-1.3333333,0,264)"><g id="g12"><g id="g14" clip-path="url(#clipPath18)"><g id="g20" transform="translate(631.3354,110.2706)"><path d="m 0,0 c 0,3.076 -2.44,5.61 -5.621,5.61 -3.201,0 -5.642,-2.574 -5.642,-5.65 0,-3.078 2.421,-5.611 5.602,-5.611 C -2.461,-5.651 0,-3.077 0,0 m 1.118,0 c 0,-3.673 -2.971,-6.771 -6.779,-6.771 -3.789,0 -6.721,3.058 -6.721,6.731 0,3.672 2.952,6.769 6.761,6.769 3.789,0 6.739,-3.037 6.739,-6.729" style="fill:#008552;fill-opacity:1;fill-rule:nonzero;stroke:none" id="path22"></path></g><g id="g24" transform="translate(625.5512,110.6992)"><path d="M 0,0 C 0.376,0 0.733,0.071 1.072,0.213 1.411,0.355 1.58,0.641 1.58,1.072 1.58,1.466 1.424,1.729 1.113,1.862 0.802,1.995 0.476,2.061 0.137,2.061 H -1.044 V 0 Z M -2.336,3.16 H 0.192 C 0.531,3.16 0.861,3.121 1.182,3.044 1.502,2.966 1.789,2.844 2.04,2.679 2.292,2.515 2.494,2.299 2.645,2.034 2.796,1.768 2.872,1.438 2.872,1.044 2.872,0.522 2.721,0.096 2.418,-0.234 2.116,-0.563 1.713,-0.783 1.209,-0.893 L 3.147,-4.04 H 1.58 l -1.69,3.009 H -1.044 V -4.04 h -1.292 z" style="fill:#008552;fill-opacity:1;fill-rule:nonzero;stroke:none" id="path26"></path></g><g id="g28" transform="translate(63,99.1982)"><path d="m 0,0 c 0,21.098 16.031,36.715 37.543,36.715 10.239,0 19.443,-3.309 25.753,-10.032 L 59.986,23.27 C 53.78,29.372 46.23,31.854 37.75,31.854 19.237,31.854 5.274,18.202 5.274,0 c 0,-18.203 13.963,-31.854 32.476,-31.854 8.48,0 16.03,2.584 22.236,8.687 l 3.31,-3.413 C 56.986,-33.303 47.782,-36.716 37.543,-36.716 16.031,-36.716 0,-21.099 0,0" style="fill:#008552;fill-opacity:1;fill-rule:nonzero;stroke:none" id="path30"></path></g><g id="g32" transform="translate(138.6406,92.7861)"><path d="M 0,0 H 41.369 C 40.646,11.687 32.165,20.064 20.685,20.064 9.205,20.064 0.827,11.79 0,0 M 46.334,-4.034 H -0.104 c 0.518,-12.824 9.929,-21.512 22.857,-21.512 6.826,0 13.135,2.483 17.272,7.55 l 2.999,-3.413 C 38.267,-27.201 30.82,-30.2 22.649,-30.2 c -16.34,0 -27.82,11.377 -27.82,27.407 0,16.031 11.067,27.407 25.856,27.407 14.79,0 25.753,-11.169 25.753,-27.2 0,-0.414 -0.104,-0.931 -0.104,-1.448" style="fill:#008552;fill-opacity:1;fill-rule:nonzero;stroke:none" id="path34"></path></g><g id="g36" transform="translate(246.8291,94.5439)"><path d="m 0,0 v -31.544 h -5.172 v 31.131 c 0,12.203 -6.516,18.616 -17.478,18.616 -12.721,0 -20.478,-8.171 -20.478,-20.995 V -31.544 H -48.3 v 53.987 h 4.965 V 10.756 c 3.62,7.551 11.17,12.1 21.408,12.1 C -8.792,22.856 0,15.1 0,0" style="fill:#008552;fill-opacity:1;fill-rule:nonzero;stroke:none" id="path38"></path></g><g id="g40" transform="translate(265.1309,92.7861)"><path d="M 0,0 H 41.369 C 40.646,11.687 32.165,20.064 20.685,20.064 9.205,20.064 0.827,11.79 0,0 M 46.334,-4.034 H -0.104 c 0.518,-12.824 9.929,-21.512 22.857,-21.512 6.826,0 13.135,2.483 17.272,7.55 l 2.999,-3.413 C 38.267,-27.201 30.82,-30.2 22.649,-30.2 c -16.34,0 -27.82,11.377 -27.82,27.407 0,16.031 11.067,27.407 25.856,27.407 14.79,0 25.753,-11.169 25.753,-27.2 0,-0.414 -0.104,-0.931 -0.104,-1.448" style="fill:#008552;fill-opacity:1;fill-rule:nonzero;stroke:none" id="path42"></path></g><g id="g44" transform="translate(351.0723,117.4004)"><path d="m 0,0 v -5.067 c -0.413,0 -0.827,0.103 -1.241,0.103 -11.997,0 -19.133,-7.964 -19.133,-21.306 V -54.4 h -5.172 v 53.986 h 4.965 V -12.203 C -17.271,-4.344 -10.136,0 0,0" style="fill:#008552;fill-opacity:1;fill-rule:nonzero;stroke:none" id="path46"></path></g><g id="g48" transform="translate(407.7471,91.2344)"><path d="m 0,0 c 0,12.722 -9.309,21.513 -22.133,21.513 -12.721,0 -22.029,-8.791 -22.029,-21.513 0,-12.721 9.308,-21.615 22.029,-21.615 C -9.309,-21.615 0,-12.721 0,0 m 5.067,25.752 v -48.194 c 0,-18.1 -8.791,-26.271 -26.166,-26.271 -9.825,0 -19.237,3.104 -24.718,8.585 l 2.793,3.93 c 5.378,-4.965 13.134,-7.861 21.822,-7.861 14.376,0 21.098,6.62 21.098,20.996 v 9.101 c -4.447,-7.86 -12.721,-12.308 -22.443,-12.308 -15.307,0 -26.89,10.86 -26.89,26.27 0,15.41 11.583,26.166 26.89,26.166 9.929,0 18.307,-4.55 22.651,-12.617 v 12.203 z" style="fill:#008552;fill-opacity:1;fill-rule:nonzero;stroke:none" id="path50"></path></g><path d="m 428.738,116.987 h 5.172 V 63 h -5.172 z m -1.654,13.773 c 0,2.275 1.861,4.24 4.24,4.24 2.379,0 4.24,-1.862 4.24,-4.137 0,-2.379 -1.861,-4.24 -4.24,-4.24 -2.379,0 -4.24,1.861 -4.24,4.137" style="fill:#008552;fill-opacity:1;fill-rule:nonzero;stroke:none" id="path52"></path><g id="g54" transform="translate(447.249,69.5156)"><path d="m 0,0 2.379,4.137 c 4.137,-3.517 11.479,-6.516 19.443,-6.516 11.377,0 15.928,4.033 15.928,10.136 0,15.721 -35.785,4.137 -35.785,25.339 0,8.17 6.826,14.789 20.478,14.789 6.826,0 14.273,-2.069 18.513,-5.275 L 38.577,38.474 C 34.026,41.783 28.132,43.335 22.34,43.335 11.79,43.335 7.137,38.991 7.137,33.199 7.137,16.961 42.921,28.441 42.921,7.86 42.921,-0.931 35.371,-6.93 21.615,-6.93 12.721,-6.93 4.24,-3.931 0,0" style="fill:#008552;fill-opacity:1;fill-rule:nonzero;stroke:none" id="path56"></path></g><g id="g58" transform="translate(532.7783,66.4131)"><path d="m 0,0 c -2.689,-2.586 -7.033,-3.827 -11.066,-3.827 -9.515,0 -14.687,5.585 -14.687,14.686 v 35.268 h -9.929 v 4.447 h 9.929 v 11.79 h 5.172 V 50.574 H -3.413 V 46.127 H -20.581 V 11.376 c 0,-6.929 3.413,-10.756 10.032,-10.756 3.206,0 6.205,1.034 8.377,2.999 z" style="fill:#008552;fill-opacity:1;fill-rule:nonzero;stroke:none" id="path60"></path></g><path d="m 545.187,116.987 h 5.171 V 63 h -5.171 z m -1.655,13.773 c 0,2.275 1.862,4.24 4.24,4.24 2.379,0 4.241,-1.862 4.241,-4.137 0,-2.379 -1.862,-4.24 -4.241,-4.24 -2.378,0 -4.24,1.861 -4.24,4.137" style="fill:#008552;fill-opacity:1;fill-rule:nonzero;stroke:none" id="path62"></path><g id="g64" transform="translate(564.2178,89.9932)"><path d="m 0,0 c 0,16.135 11.48,27.407 27.305,27.407 8.584,0 16.03,-3.309 20.477,-9.928 l -3.826,-2.792 c -3.931,5.481 -9.929,8.067 -16.651,8.067 -12.722,0 -22.03,-9.102 -22.03,-22.754 0,-13.651 9.308,-22.753 22.03,-22.753 6.722,0 12.72,2.586 16.651,8.067 l 3.826,-2.793 C 43.335,-23.994 35.889,-27.407 27.305,-27.407 11.48,-27.407 0,-16.03 0,0" style="fill:#008552;fill-opacity:1;fill-rule:nonzero;stroke:none" id="path66"></path></g></g></g></g></svg>
